<mxfile host="app.diagrams.net" modified="2020-09-11T09:25:26.291Z" agent="5.0 (Macintosh; Intel Mac OS X 10_15_6) AppleWebKit/537.36 (KHTML, like Gecko) Chrome/85.0.4183.83 Safari/537.36" etag="uLxPggSBphH1R7QHy2Xy" version="13.6.6" type="github">
  <diagram id="UEX7EZ0318voCku9YmOS" name="第 1 页">
    <mxGraphModel dx="946" dy="623" grid="1" gridSize="10" guides="1" tooltips="1" connect="1" arrows="1" fold="1" page="1" pageScale="1" pageWidth="827" pageHeight="1169" math="0" shadow="0">
      <root>
        <mxCell id="0" />
        <mxCell id="1" parent="0" />
        <mxCell id="YgYQH13nvaTB2N4r1Fw5-1" value="d[0][0]" style="rounded=0;whiteSpace=wrap;html=1;" parent="1" vertex="1">
          <mxGeometry x="140" y="160" width="50" height="30" as="geometry" />
        </mxCell>
        <mxCell id="cktUN325heW_Mbpu9t7h-1" value="" style="shape=curlyBracket;whiteSpace=wrap;html=1;rounded=1;" vertex="1" parent="1">
          <mxGeometry x="120" y="180" width="20" height="230" as="geometry" />
        </mxCell>
        <mxCell id="cktUN325heW_Mbpu9t7h-2" value="&lt;span&gt;d[0][1]&lt;/span&gt;" style="rounded=0;whiteSpace=wrap;html=1;" vertex="1" parent="1">
          <mxGeometry x="200" y="160" width="50" height="30" as="geometry" />
        </mxCell>
        <mxCell id="cktUN325heW_Mbpu9t7h-3" value="&lt;span&gt;d[0][4095]&lt;/span&gt;" style="rounded=0;whiteSpace=wrap;html=1;" vertex="1" parent="1">
          <mxGeometry x="290" y="160" width="50" height="30" as="geometry" />
        </mxCell>
        <mxCell id="cktUN325heW_Mbpu9t7h-4" value="" style="endArrow=none;dashed=1;html=1;dashPattern=1 3;strokeWidth=2;exitX=1;exitY=0.5;exitDx=0;exitDy=0;entryX=0;entryY=0.5;entryDx=0;entryDy=0;" edge="1" parent="1" source="cktUN325heW_Mbpu9t7h-2" target="cktUN325heW_Mbpu9t7h-3">
          <mxGeometry width="50" height="50" relative="1" as="geometry">
            <mxPoint x="330" y="220" as="sourcePoint" />
            <mxPoint x="410" y="220.5" as="targetPoint" />
          </mxGeometry>
        </mxCell>
        <mxCell id="cktUN325heW_Mbpu9t7h-5" value="&lt;span&gt;d[1][0]&lt;/span&gt;" style="rounded=0;whiteSpace=wrap;html=1;" vertex="1" parent="1">
          <mxGeometry x="140" y="210" width="50" height="30" as="geometry" />
        </mxCell>
        <mxCell id="cktUN325heW_Mbpu9t7h-6" value="&lt;span&gt;d[5][0]&lt;/span&gt;" style="rounded=0;whiteSpace=wrap;html=1;" vertex="1" parent="1">
          <mxGeometry x="140" y="390" width="50" height="30" as="geometry" />
        </mxCell>
        <mxCell id="cktUN325heW_Mbpu9t7h-9" value="&lt;span&gt;d[1][1]&lt;/span&gt;" style="rounded=0;whiteSpace=wrap;html=1;" vertex="1" parent="1">
          <mxGeometry x="200" y="210" width="50" height="30" as="geometry" />
        </mxCell>
        <mxCell id="cktUN325heW_Mbpu9t7h-10" value="" style="rounded=0;whiteSpace=wrap;html=1;" vertex="1" parent="1">
          <mxGeometry x="290" y="210" width="50" height="30" as="geometry" />
        </mxCell>
        <mxCell id="cktUN325heW_Mbpu9t7h-11" value="" style="endArrow=none;dashed=1;html=1;dashPattern=1 3;strokeWidth=2;exitX=1;exitY=0.5;exitDx=0;exitDy=0;entryX=0;entryY=0.5;entryDx=0;entryDy=0;" edge="1" parent="1" source="cktUN325heW_Mbpu9t7h-9" target="cktUN325heW_Mbpu9t7h-10">
          <mxGeometry width="50" height="50" relative="1" as="geometry">
            <mxPoint x="330" y="270" as="sourcePoint" />
            <mxPoint x="410" y="270.5" as="targetPoint" />
          </mxGeometry>
        </mxCell>
        <mxCell id="cktUN325heW_Mbpu9t7h-12" value="&lt;span&gt;d[0][0]&lt;/span&gt;" style="rounded=0;whiteSpace=wrap;html=1;" vertex="1" parent="1">
          <mxGeometry x="200" y="390" width="50" height="30" as="geometry" />
        </mxCell>
        <mxCell id="cktUN325heW_Mbpu9t7h-13" value="&lt;span&gt;d[5][4095]&lt;/span&gt;" style="rounded=0;whiteSpace=wrap;html=1;" vertex="1" parent="1">
          <mxGeometry x="290" y="390" width="50" height="30" as="geometry" />
        </mxCell>
        <mxCell id="cktUN325heW_Mbpu9t7h-14" value="" style="endArrow=none;dashed=1;html=1;dashPattern=1 3;strokeWidth=2;exitX=1;exitY=0.5;exitDx=0;exitDy=0;entryX=0;entryY=0.5;entryDx=0;entryDy=0;" edge="1" parent="1" source="cktUN325heW_Mbpu9t7h-12" target="cktUN325heW_Mbpu9t7h-13">
          <mxGeometry width="50" height="50" relative="1" as="geometry">
            <mxPoint x="330" y="450" as="sourcePoint" />
            <mxPoint x="410" y="450.5" as="targetPoint" />
          </mxGeometry>
        </mxCell>
        <mxCell id="cktUN325heW_Mbpu9t7h-15" value="data[6][4096]&lt;br&gt;code[4][4096]" style="text;html=1;strokeColor=none;fillColor=none;align=center;verticalAlign=middle;whiteSpace=wrap;rounded=0;" vertex="1" parent="1">
          <mxGeometry x="30" y="270" width="80" height="50" as="geometry" />
        </mxCell>
        <mxCell id="cktUN325heW_Mbpu9t7h-16" value="RS(6,4)" style="text;html=1;strokeColor=none;fillColor=none;align=center;verticalAlign=middle;whiteSpace=wrap;rounded=0;" vertex="1" parent="1">
          <mxGeometry x="20" y="140" width="70" height="20" as="geometry" />
        </mxCell>
        <mxCell id="cktUN325heW_Mbpu9t7h-17" value="d[0][0]" style="rounded=0;whiteSpace=wrap;html=1;" vertex="1" parent="1">
          <mxGeometry x="514" y="160" width="50" height="30" as="geometry" />
        </mxCell>
        <mxCell id="cktUN325heW_Mbpu9t7h-18" value="" style="shape=curlyBracket;whiteSpace=wrap;html=1;rounded=1;" vertex="1" parent="1">
          <mxGeometry x="494" y="180" width="20" height="140" as="geometry" />
        </mxCell>
        <mxCell id="cktUN325heW_Mbpu9t7h-19" value="&lt;span&gt;d[0][1]&lt;/span&gt;" style="rounded=0;whiteSpace=wrap;html=1;" vertex="1" parent="1">
          <mxGeometry x="574" y="160" width="50" height="30" as="geometry" />
        </mxCell>
        <mxCell id="cktUN325heW_Mbpu9t7h-20" value="&lt;span&gt;d[0][2]&lt;/span&gt;" style="rounded=0;whiteSpace=wrap;html=1;" vertex="1" parent="1">
          <mxGeometry x="640" y="160" width="50" height="30" as="geometry" />
        </mxCell>
        <mxCell id="cktUN325heW_Mbpu9t7h-22" value="&lt;span&gt;d[1][0]&lt;/span&gt;" style="rounded=0;whiteSpace=wrap;html=1;" vertex="1" parent="1">
          <mxGeometry x="514" y="210" width="50" height="30" as="geometry" />
        </mxCell>
        <mxCell id="cktUN325heW_Mbpu9t7h-23" value="&lt;span&gt;d[4095][0]&lt;/span&gt;" style="rounded=0;whiteSpace=wrap;html=1;" vertex="1" parent="1">
          <mxGeometry x="514" y="300" width="50" height="30" as="geometry" />
        </mxCell>
        <mxCell id="cktUN325heW_Mbpu9t7h-24" value="" style="endArrow=none;dashed=1;html=1;dashPattern=1 3;strokeWidth=2;exitX=0.5;exitY=1;exitDx=0;exitDy=0;entryX=0.5;entryY=0;entryDx=0;entryDy=0;" edge="1" parent="1" source="cktUN325heW_Mbpu9t7h-22" target="cktUN325heW_Mbpu9t7h-23">
          <mxGeometry width="50" height="50" relative="1" as="geometry">
            <mxPoint x="634" y="185" as="sourcePoint" />
            <mxPoint x="674" y="185" as="targetPoint" />
          </mxGeometry>
        </mxCell>
        <mxCell id="cktUN325heW_Mbpu9t7h-25" value="&lt;span&gt;d[1][1]&lt;/span&gt;" style="rounded=0;whiteSpace=wrap;html=1;" vertex="1" parent="1">
          <mxGeometry x="574" y="210" width="50" height="30" as="geometry" />
        </mxCell>
        <mxCell id="cktUN325heW_Mbpu9t7h-26" value="&lt;span&gt;d[1][2]&lt;/span&gt;" style="rounded=0;whiteSpace=wrap;html=1;" vertex="1" parent="1">
          <mxGeometry x="640" y="210" width="50" height="30" as="geometry" />
        </mxCell>
        <mxCell id="cktUN325heW_Mbpu9t7h-28" value="&lt;span&gt;d[4095][1]&lt;/span&gt;" style="rounded=0;whiteSpace=wrap;html=1;" vertex="1" parent="1">
          <mxGeometry x="574" y="300" width="50" height="30" as="geometry" />
        </mxCell>
        <mxCell id="cktUN325heW_Mbpu9t7h-29" value="&lt;span&gt;d[4095][2]&lt;/span&gt;" style="rounded=0;whiteSpace=wrap;html=1;" vertex="1" parent="1">
          <mxGeometry x="640" y="300" width="50" height="30" as="geometry" />
        </mxCell>
        <mxCell id="cktUN325heW_Mbpu9t7h-31" value="data[4096][6]&lt;br&gt;code[4096][4]" style="text;html=1;strokeColor=none;fillColor=none;align=center;verticalAlign=middle;whiteSpace=wrap;rounded=0;" vertex="1" parent="1">
          <mxGeometry x="414" y="220" width="80" height="50" as="geometry" />
        </mxCell>
        <mxCell id="cktUN325heW_Mbpu9t7h-32" value="&lt;span&gt;d[2][0]&lt;/span&gt;" style="rounded=0;whiteSpace=wrap;html=1;" vertex="1" parent="1">
          <mxGeometry x="140" y="260" width="50" height="30" as="geometry" />
        </mxCell>
        <mxCell id="cktUN325heW_Mbpu9t7h-33" value="&lt;span&gt;d[2][1]&lt;/span&gt;" style="rounded=0;whiteSpace=wrap;html=1;" vertex="1" parent="1">
          <mxGeometry x="200" y="260" width="50" height="30" as="geometry" />
        </mxCell>
        <mxCell id="cktUN325heW_Mbpu9t7h-34" value="" style="rounded=0;whiteSpace=wrap;html=1;" vertex="1" parent="1">
          <mxGeometry x="290" y="260" width="50" height="30" as="geometry" />
        </mxCell>
        <mxCell id="cktUN325heW_Mbpu9t7h-35" value="" style="endArrow=none;dashed=1;html=1;dashPattern=1 3;strokeWidth=2;exitX=1;exitY=0.5;exitDx=0;exitDy=0;entryX=0;entryY=0.5;entryDx=0;entryDy=0;" edge="1" parent="1" source="cktUN325heW_Mbpu9t7h-33" target="cktUN325heW_Mbpu9t7h-34">
          <mxGeometry width="50" height="50" relative="1" as="geometry">
            <mxPoint x="330" y="320" as="sourcePoint" />
            <mxPoint x="410" y="320.5" as="targetPoint" />
          </mxGeometry>
        </mxCell>
        <mxCell id="cktUN325heW_Mbpu9t7h-36" value="&lt;span&gt;d[3][0]&lt;/span&gt;" style="rounded=0;whiteSpace=wrap;html=1;" vertex="1" parent="1">
          <mxGeometry x="140" y="300" width="50" height="30" as="geometry" />
        </mxCell>
        <mxCell id="cktUN325heW_Mbpu9t7h-37" value="&lt;span&gt;d[3][1]&lt;/span&gt;" style="rounded=0;whiteSpace=wrap;html=1;" vertex="1" parent="1">
          <mxGeometry x="200" y="300" width="50" height="30" as="geometry" />
        </mxCell>
        <mxCell id="cktUN325heW_Mbpu9t7h-38" value="" style="rounded=0;whiteSpace=wrap;html=1;" vertex="1" parent="1">
          <mxGeometry x="290" y="300" width="50" height="30" as="geometry" />
        </mxCell>
        <mxCell id="cktUN325heW_Mbpu9t7h-39" value="" style="endArrow=none;dashed=1;html=1;dashPattern=1 3;strokeWidth=2;exitX=1;exitY=0.5;exitDx=0;exitDy=0;entryX=0;entryY=0.5;entryDx=0;entryDy=0;" edge="1" parent="1" source="cktUN325heW_Mbpu9t7h-37" target="cktUN325heW_Mbpu9t7h-38">
          <mxGeometry width="50" height="50" relative="1" as="geometry">
            <mxPoint x="330" y="360" as="sourcePoint" />
            <mxPoint x="410" y="360.5" as="targetPoint" />
          </mxGeometry>
        </mxCell>
        <mxCell id="cktUN325heW_Mbpu9t7h-40" value="&lt;span&gt;d[4][0]&lt;/span&gt;" style="rounded=0;whiteSpace=wrap;html=1;" vertex="1" parent="1">
          <mxGeometry x="140" y="350" width="50" height="30" as="geometry" />
        </mxCell>
        <mxCell id="cktUN325heW_Mbpu9t7h-41" value="&lt;span&gt;d[4][1]&lt;/span&gt;" style="rounded=0;whiteSpace=wrap;html=1;" vertex="1" parent="1">
          <mxGeometry x="200" y="350" width="50" height="30" as="geometry" />
        </mxCell>
        <mxCell id="cktUN325heW_Mbpu9t7h-42" value="" style="rounded=0;whiteSpace=wrap;html=1;" vertex="1" parent="1">
          <mxGeometry x="290" y="350" width="50" height="30" as="geometry" />
        </mxCell>
        <mxCell id="cktUN325heW_Mbpu9t7h-43" value="" style="endArrow=none;dashed=1;html=1;dashPattern=1 3;strokeWidth=2;exitX=1;exitY=0.5;exitDx=0;exitDy=0;entryX=0;entryY=0.5;entryDx=0;entryDy=0;" edge="1" parent="1" source="cktUN325heW_Mbpu9t7h-41" target="cktUN325heW_Mbpu9t7h-42">
          <mxGeometry width="50" height="50" relative="1" as="geometry">
            <mxPoint x="330" y="410" as="sourcePoint" />
            <mxPoint x="410" y="410.5" as="targetPoint" />
          </mxGeometry>
        </mxCell>
        <mxCell id="cktUN325heW_Mbpu9t7h-44" value="&lt;span&gt;d[0][3]&lt;/span&gt;" style="rounded=0;whiteSpace=wrap;html=1;" vertex="1" parent="1">
          <mxGeometry x="710" y="160" width="50" height="30" as="geometry" />
        </mxCell>
        <mxCell id="cktUN325heW_Mbpu9t7h-45" value="&lt;span&gt;d[1][3]&lt;/span&gt;" style="rounded=0;whiteSpace=wrap;html=1;" vertex="1" parent="1">
          <mxGeometry x="710" y="210" width="50" height="30" as="geometry" />
        </mxCell>
        <mxCell id="cktUN325heW_Mbpu9t7h-46" value="&lt;span&gt;d[4095][3]&lt;/span&gt;" style="rounded=0;whiteSpace=wrap;html=1;" vertex="1" parent="1">
          <mxGeometry x="710" y="300" width="50" height="30" as="geometry" />
        </mxCell>
        <mxCell id="cktUN325heW_Mbpu9t7h-47" value="&lt;span&gt;d[0][4]&lt;/span&gt;" style="rounded=0;whiteSpace=wrap;html=1;" vertex="1" parent="1">
          <mxGeometry x="780" y="160" width="50" height="30" as="geometry" />
        </mxCell>
        <mxCell id="cktUN325heW_Mbpu9t7h-48" value="&lt;span&gt;d[1][4]&lt;/span&gt;" style="rounded=0;whiteSpace=wrap;html=1;" vertex="1" parent="1">
          <mxGeometry x="780" y="210" width="50" height="30" as="geometry" />
        </mxCell>
        <mxCell id="cktUN325heW_Mbpu9t7h-49" value="&lt;span&gt;d[4095][4]&lt;/span&gt;" style="rounded=0;whiteSpace=wrap;html=1;" vertex="1" parent="1">
          <mxGeometry x="780" y="300" width="50" height="30" as="geometry" />
        </mxCell>
        <mxCell id="cktUN325heW_Mbpu9t7h-50" value="&lt;span&gt;d[0][5]&lt;/span&gt;" style="rounded=0;whiteSpace=wrap;html=1;" vertex="1" parent="1">
          <mxGeometry x="850" y="160" width="50" height="30" as="geometry" />
        </mxCell>
        <mxCell id="cktUN325heW_Mbpu9t7h-51" value="&lt;span&gt;d[1][5]&lt;/span&gt;" style="rounded=0;whiteSpace=wrap;html=1;" vertex="1" parent="1">
          <mxGeometry x="850" y="210" width="50" height="30" as="geometry" />
        </mxCell>
        <mxCell id="cktUN325heW_Mbpu9t7h-52" value="&lt;span&gt;d[4095][5]&lt;/span&gt;" style="rounded=0;whiteSpace=wrap;html=1;" vertex="1" parent="1">
          <mxGeometry x="850" y="300" width="50" height="30" as="geometry" />
        </mxCell>
        <mxCell id="cktUN325heW_Mbpu9t7h-53" value="" style="endArrow=none;dashed=1;html=1;dashPattern=1 3;strokeWidth=2;exitX=0.5;exitY=1;exitDx=0;exitDy=0;entryX=0.5;entryY=0;entryDx=0;entryDy=0;" edge="1" parent="1">
          <mxGeometry width="50" height="50" relative="1" as="geometry">
            <mxPoint x="598.5" y="240" as="sourcePoint" />
            <mxPoint x="598.5" y="300" as="targetPoint" />
          </mxGeometry>
        </mxCell>
        <mxCell id="cktUN325heW_Mbpu9t7h-54" value="" style="endArrow=none;dashed=1;html=1;dashPattern=1 3;strokeWidth=2;exitX=0.5;exitY=1;exitDx=0;exitDy=0;entryX=0.5;entryY=0;entryDx=0;entryDy=0;" edge="1" parent="1">
          <mxGeometry width="50" height="50" relative="1" as="geometry">
            <mxPoint x="664.5" y="240" as="sourcePoint" />
            <mxPoint x="664.5" y="300" as="targetPoint" />
          </mxGeometry>
        </mxCell>
        <mxCell id="cktUN325heW_Mbpu9t7h-55" value="" style="endArrow=none;dashed=1;html=1;dashPattern=1 3;strokeWidth=2;exitX=0.5;exitY=1;exitDx=0;exitDy=0;entryX=0.5;entryY=0;entryDx=0;entryDy=0;" edge="1" parent="1">
          <mxGeometry width="50" height="50" relative="1" as="geometry">
            <mxPoint x="734.5" y="240" as="sourcePoint" />
            <mxPoint x="734.5" y="300" as="targetPoint" />
          </mxGeometry>
        </mxCell>
        <mxCell id="cktUN325heW_Mbpu9t7h-56" value="" style="endArrow=none;dashed=1;html=1;dashPattern=1 3;strokeWidth=2;exitX=0.5;exitY=1;exitDx=0;exitDy=0;entryX=0.5;entryY=0;entryDx=0;entryDy=0;" edge="1" parent="1">
          <mxGeometry width="50" height="50" relative="1" as="geometry">
            <mxPoint x="804.5" y="240" as="sourcePoint" />
            <mxPoint x="804.5" y="300" as="targetPoint" />
          </mxGeometry>
        </mxCell>
        <mxCell id="cktUN325heW_Mbpu9t7h-57" value="" style="endArrow=none;dashed=1;html=1;dashPattern=1 3;strokeWidth=2;exitX=0.5;exitY=1;exitDx=0;exitDy=0;entryX=0.5;entryY=0;entryDx=0;entryDy=0;" edge="1" parent="1">
          <mxGeometry width="50" height="50" relative="1" as="geometry">
            <mxPoint x="874.5" y="240" as="sourcePoint" />
            <mxPoint x="874.5" y="300" as="targetPoint" />
          </mxGeometry>
        </mxCell>
      </root>
    </mxGraphModel>
  </diagram>
</mxfile>
